<svg version="1.1" xmlns="http://www.w3.org/2000/svg" x="0px" y="0px" style="display: block; transform: scale(-1,1)" viewBox="0 0 1000 1000" enable-background="new 0 0 1000 1000" xml:space="preserve" fit="" height="100%" width="100%" preserveAspectRatio="xMidYMid meet" focusable="false">
<g><g transform="translate(0.000000,511.000000) scale(0.100000,-0.100000)"><path fill="#ffffff" d="M1860.2,4455.2C974.2,4180.3,236.5,3946.9,220.6,3937c-15.8-9.9-35.6-31.6-41.5-47.5c-7.9-15.8-29.7-55.4-47.5-91C104,3743.2,100,3557.3,100,1799V-141.2l45.5-49.4c37.6-43.5,284.8-118.7,1740.5-534l1697-484.6l1625.7,464.8c1873,534,1807.7,514.2,1833.4,561.7c11.9,23.7,19.8,739.7,19.8,1993.6V3767l-43.5,39.6c-57.3,51.4-3389.9,1153-3482.9,1151.1C3499.8,4957.6,2746.3,4730.1,1860.2,4455.2z M4953.5,4186.2c763.4-251.2,1390.4-460.8,1394.4-464.8c15.8-13.8,0-17.8-516.2-166.1c-498.4-140.4-510.3-142.4-583.4-112.7c-41.5,15.8-670.5,213.6-1400.3,439.1c-729.8,225.5-1337,415.3-1350.8,423.3c-23.7,13.8,955.3,332.3,1032.4,336.2C3551.3,4643.1,4192.1,4437.4,4953.5,4186.2z M3349.5,3711.6c775.3-239.3,1410.2-439.1,1416.1-443c11.9-13.8-49.4-31.7-634.9-197.8l-545.9-154.3l-1441.8,409.4c-791.1,227.5-1445.8,417.3-1453.7,425.2c-11.9,9.9,1163,389.6,1228.2,395.6C1931.4,4146.7,2576.2,3952.9,3349.5,3711.6z M1955.2,3058.9l1467.5-419.3V903.1c0-957.3-4-1738.5-9.9-1738.5c-7.9,0-2806.5,797.1-2962.7,842.5c-31.6,9.9-33.6,110.8-33.6,1750.4c0,1649.5,2,1740.5,35.6,1730.6C469.9,3482.1,1146.3,3290.3,1955.2,3058.9z M6765.2,1757.5V21L5266-408.2c-822.8-235.4-1503.1-427.2-1513-427.2c-7.9,0-13.9,781.2-13.9,1736.5v1736.5l1489.3,427.2c816.8,235.4,1499.2,427.2,1513,429.2C6759.3,3496,6765.2,3136,6765.2,1757.5z"></path><path fill="#ffffff" d="M5410.4-1389.2c-290.7-94.9-504.3-379.7-504.3-676.4c0-92.9,2-96.9,134.5-205.7c170.1-142.4,520.2-312.5,894-435.1l284.8-95l-116.7-35.6c-227.4-69.2-832.6-229.4-998.8-263c-92.9-19.8-225.5-35.6-298.6-37.6c-120.6-2-146.4,5.9-379.7,120.7c-138.4,67.2-551.8,294.7-917.7,502.4C2323-1840.1,2071.9-1735.3,1880-1834.2c-93-49.4-102.8-89-102.8-425.2c-2-296.7,2-312.5,53.4-417.3c227.4-466.8,1293.5-1283.6,2345.7-1797.8c150.3-73.2,360-162.2,466.8-197.8l193.8-65.3l375.8,11.9c356,11.9,905.8,55.4,1505.1,122.6l272.9,29.7l690.2,318.4c379.7,174.1,704.1,322.4,717.9,328.3c21.8,7.9,27.7-27.7,27.7-180c0-178,4-195.8,49.4-239.3l47.5-49.4h640.8c603.2,0,644.8,2,688.3,37.6l47.5,37.6v1447.8v1447.8l-47.5,37.6c-43.5,35.6-85,37.6-688.3,37.6h-640.8l-47.5-49.4c-45.5-43.5-49.4-61.3-49.4-247.2c0-112.7-7.9-197.8-19.8-197.8c-9.9,0-276.9,110.8-591.4,247.2l-573.6,247.2l-856.4-2C5596.3-1351.6,5519.2-1355.6,5410.4-1389.2z M7803.5-1929.1l613.1-263l4-690.3l5.9-692.2l-767.4-350.1l-765.4-350.1l-494.5-49.4c-710-71.2-1034.4-94.9-1315.2-98.9c-213.6-2-265,4-385.7,45.5c-644.8,223.5-1869,1022.5-2385.2,1558.5c-215.6,223.5-235.4,267-235.4,510.3c0,187.9,0,189.9,45.5,178c110.8-33.6,573.6-276.9,1200.5-634.9C4376-3365,4563.9-3452,4797.3-3448.1c239.3,2,743.6,118.7,1507.1,350.1c603.2,182,619,189.9,619,310.5c0,102.9-73.2,142.4-435.1,239.3c-462.8,122.6-1089.8,369.8-1224.3,480.6c-37.6,31.6-43.5,49.4-33.6,98.9c21.7,96.9,116.7,213.6,211.6,259.1c85.1,41.5,106.8,43.5,917.7,43.5h832.6L7803.5-1929.1z M9593.4-2872.5V-4079h-435.1h-435.1v1206.5v1206.5h435.1h435.1V-2872.5z"></path></g></g>
</svg>
